<svg width="255" height="122" viewBox="0 0 255 122" fill="none" xmlns="http://www.w3.org/2000/svg">
<path d="M22.327 1.27317C20.4789 1.98396 19.0573 3.26339 19.0573 3.97418C19.0573 4.68497 15.6455 7.10166 11.6651 9.3762C-1.41346 16.342 -3.83015 27.146 6.12093 32.9745C10.1014 35.249 10.1014 35.249 9.39057 31.8372C8.82194 28.4254 13.6553 19.7538 16.3563 19.7538C17.0671 19.7538 17.6358 37.3814 17.6358 63.2542V106.897L11.8073 105.902C6.40525 105.049 6.12093 105.191 6.54741 108.176C6.83172 110.309 8.67978 112.157 11.6651 113.436C14.9347 115 16.2142 116.421 16.2142 118.98C16.2142 121.966 16.6406 122.25 20.1946 121.397C22.327 120.97 25.8809 119.549 28.1555 118.412C30.43 117.274 34.6948 116.421 37.5379 116.421C49.7635 116.421 63.1264 108.603 67.5333 98.7938C73.3618 85.9995 69.5235 71.4994 59.2881 66.666C56.7293 65.5287 54.5969 64.2493 54.5969 63.8228C54.5969 63.3964 57.5822 61.5483 61.2784 59.5581C69.95 55.009 76.9158 45.9109 78.1952 37.3814C81.0384 18.6165 67.6755 6.10655 42.9399 4.54281C35.2634 3.97418 30.7143 2.97907 30.0035 1.8418C28.7241 -0.432728 26.876 -0.574886 22.327 1.27317ZM52.891 19.6116C61.4205 24.0185 63.695 28.1411 63.2686 38.803C62.9843 44.9158 50.19 56.9992 40.5232 60.2689C28.8663 64.1071 29.0084 64.2493 29.0084 39.2294C29.0084 27.146 29.4349 16.9106 30.1457 16.342C31.9937 14.3517 46.7782 16.4841 52.891 19.6116ZM41.6605 69.6513C59.7146 73.4896 62.8421 92.5388 47.3468 103.911C43.5086 106.755 33.5575 109.598 31.5673 108.461C30.9986 108.034 30.43 98.7938 30.43 87.8476C30.43 65.6709 29.5771 67.0925 41.6605 69.6513Z" fill="#0065FC"/>
<path d="M186.52 9.23407L182.539 11.3664V47.3325C182.539 67.0925 182.966 88.2741 183.535 94.2447L184.387 105.191L189.505 104.764L194.623 104.338L194.196 93.534L193.628 82.8721L198.603 79.0338C201.446 76.9014 204.29 75.1955 205.143 75.1955C207.986 75.1955 210.971 81.7348 212.251 91.1173C214.809 109.456 221.775 115.568 234.569 110.735L238.265 109.314L233.716 106.044C226.608 101.211 223.623 96.3771 221.491 85.7152C220.069 78.6073 218.505 75.0534 215.804 72.6367L212.251 69.5092L217.226 63.3964C222.77 56.5728 227.177 47.3325 225.898 45.3423C223.481 41.3619 214.383 45.7688 212.393 51.7394C210.545 57.4257 204.716 65.1023 198.319 70.3621L193.486 74.3426L194.481 49.607C194.907 35.9598 195.76 20.7489 196.187 15.7734C197.04 7.24385 197.04 6.95954 193.77 6.95954C191.922 7.10169 188.652 8.0968 186.52 9.23407Z" fill="#0065FC"/>
<path d="M239.403 25.4401C234.001 30.8421 236.702 39.6559 243.81 39.6559C252.339 39.6559 258.878 27.5724 252.339 24.0185C247.932 21.7439 242.53 22.3126 239.403 25.4401ZM249.78 29.2783C250.918 30.2734 245.373 36.8127 243.383 36.8127C241.535 36.8127 242.104 33.6852 244.663 30.8421C247.079 28.1411 248.359 27.7146 249.78 29.2783Z" fill="#0065FC"/>
<path d="M93.8326 49.7491C86.7247 55.4354 82.6021 64.5336 81.8913 76.7592C81.3227 86.1416 81.7492 88.8426 84.4502 94.3868C90.1365 106.044 99.9454 109.313 110.607 103.201C118.852 98.5094 122.833 90.1221 122.833 77.3278C122.833 57.71 114.446 44.0628 105.347 48.8962C102.22 50.4599 101.651 50.4599 100.941 48.754C99.9454 46.053 98.2395 46.1952 93.8326 49.7491ZM111.46 60.2688C114.303 67.6611 114.588 77.6121 112.313 85.4308C108.333 99.3624 100.088 103.058 94.8277 93.2496C91.5581 86.9946 91.7002 70.6464 95.112 63.112C97.3866 58.1365 97.813 57.8521 98.2395 60.6953L98.8081 63.9649L101.651 60.2688C105.347 55.7198 109.754 55.7198 111.46 60.2688Z" fill="#0065FC"/>
<path d="M141.74 51.3129C134.632 58.7051 131.362 67.2346 131.362 79.1759C131.362 91.4015 134.774 99.3624 141.74 103.627C147.426 107.181 151.691 107.181 159.51 103.627C164.485 101.353 166.191 99.5045 169.034 93.3917C174.152 82.4455 174.01 68.514 168.75 58.1365C163.632 48.3275 160.363 46.053 155.245 48.754C151.975 50.4599 151.407 50.4599 150.696 48.754C149.417 45.4844 146.431 46.4795 141.74 51.3129ZM160.931 60.5532C165.48 72.4945 163.632 88.1319 156.809 95.6663C152.97 99.931 152.686 99.931 148.848 97.9408C143.446 94.9555 140.887 86.8525 141.882 75.9063C142.735 66.5238 145.152 58.1365 147.142 58.1365C147.853 58.1365 148.421 59.5581 148.421 61.1218C148.421 64.1071 148.564 63.965 151.407 60.411C155.245 55.5776 159.083 55.7198 160.931 60.5532Z" fill="#0065FC"/>
<path d="M240.824 49.7492L237.27 51.0286L237.697 77.6122C237.981 92.3967 238.692 104.907 239.261 105.475C239.829 106.044 241.962 106.044 243.81 105.191C247.364 103.911 247.364 103.343 249.212 80.5975C250.065 67.9454 251.202 55.2933 251.771 52.7345C252.481 48.4697 252.339 48.1854 248.501 48.3276C246.226 48.3276 242.815 49.0384 240.824 49.7492Z" fill="#0065FC"/>
</svg>